# File created by Blade
# Date/Time:  Thu Jan 22 16:16:06 2015
# Frame Rate: 120.000 fps
#------------------------------------------------------
:FULLY-SPECIFIED
:DEGREES
1329
root 0.831710 37.450377 -2.507165 -2.326186 -3.388045 2.462881
RightUpLeg 10.071035 -7.507512 -6.068844
RightLeg -5.631312 -0.000000 0.000000
RightFoot -10.883584 -16.178860 20.639334
RightToeBase 15.937142 -0.000000 -0.000000
LeftUpLeg 8.995462 -2.507848 -0.570084
LeftLeg -3.026904 -0.000000 0.000000
LeftFoot -6.826940 9.918615 -18.631865
LeftToeBase 10.391330 -0.000000 -0.000000
Spine 6.116454 -5.291278 -3.421452
RightShoulder -2.363124 -8.818649 -29.655138
RightArm 8.897361 27.679569 31.167683
RightForeArm 6.462553 -0.000000 12.949777
RightHand 2.390008 -0.000000 4.203112
RightHandThumb1 -24.326973 -0.000000 -32.862282
LeftShoulder -19.231484 29.820514 21.896107
LeftArm 49.190657 -51.187097 -59.142745
LeftForeArm 39.555133 -0.000000 -0.219467
LeftHand -18.033660 -0.000000 -4.744663
LeftHandThumb1 -26.253704 0.000000 33.147579
Head -12.581353 13.037160 2.868318
1330
root 0.837544 37.451613 -2.513456 -2.358022 -3.356502 2.477945
RightUpLeg 10.094357 -7.460018 -6.088494
RightLeg -5.622763 -0.000000 0.000000
RightFoot -10.900315 -16.240203 20.652052
RightToeBase 15.913780 -0.000000 -0.000000
LeftUpLeg 9.002777 -2.622770 -0.604334
LeftLeg -3.009624 -0.000000 0.000000
LeftFoot -6.830190 9.998664 -18.612724
LeftToeBase 10.375824 -0.000000 -0.000000
Spine 6.132518 -5.304335 -3.431551
RightShoulder -2.322333 -8.672975 -29.639937
RightArm 8.739254 27.444291 30.988741
RightForeArm 6.402959 -0.000000 12.948102
RightHand 2.384143 -0.000000 4.308305
RightHandThumb1 -24.326973 -0.000000 -32.862282
LeftShoulder -19.141758 29.646230 21.987650
LeftArm 48.945774 -51.161887 -58.883228
LeftForeArm 39.546935 -0.000000 -0.281601
LeftHand -17.987639 -0.000000 -4.751604
LeftHandThumb1 -26.253704 0.000000 33.147579
Head -12.590689 12.970613 2.834187
1331
root 0.842926 37.452461 -2.519468 -2.395454 -3.340617 2.483933
RightUpLeg 10.118687 -7.432218 -6.101681
RightLeg -5.611792 -0.000000 0.000000
RightFoot -10.915873 -16.275932 20.660006
RightToeBase 15.917933 -0.000000 -0.000000
LeftUpLeg 9.027614 -2.729883 -0.629701
LeftLeg -3.005174 -0.000000 0.000000
LeftFoot -6.838918 10.070594 -18.638846
LeftToeBase 10.372971 -0.000000 -0.000000
Spine 6.143906 -5.325939 -3.421453
RightShoulder -2.269634 -8.709812 -29.604558
RightArm 8.715517 27.373003 30.831631
RightForeArm 6.331435 -0.000000 12.940726
RightHand 2.425889 -0.000000 4.465766
RightHandThumb1 -24.326973 -0.000000 -32.862282
LeftShoulder -19.083025 29.618078 21.993934
LeftArm 48.850541 -51.196085 -58.709432
LeftForeArm 39.509035 -0.000000 -0.369192
LeftHand -17.893326 -0.000000 -4.744750
LeftHandThumb1 -26.253704 0.000000 33.147579
Head -12.562552 13.031677 2.814420
1332
root 0.847800 37.453262 -2.526038 -2.428908 -3.339326 2.482821
RightUpLeg 10.133117 -7.401531 -6.105617
RightLeg -5.596093 -0.000000 0.000000
RightFoot -10.921036 -16.303949 20.674150
RightToeBase 15.909959 -0.000000 -0.000000
LeftUpLeg 9.060042 -2.823592 -0.646336
LeftLeg -3.024828 -0.000000 0.000000
LeftFoot -6.844387 10.122367 -18.681823
LeftToeBase 10.643963 -0.000000 -0.000000
Spine 6.160108 -5.319921 -3.402572
RightShoulder -2.241484 -8.747796 -29.559157
RightArm 8.696836 27.283026 30.669218
RightForeArm 6.179621 0.000000 12.963725
RightHand 2.406001 0.000000 4.595541
RightHandThumb1 -24.326973 -0.000000 -32.862282
LeftShoulder -19.042135 29.638697 21.972989
LeftArm 48.900852 -51.282499 -58.669072
LeftForeArm 39.590543 -0.000000 -0.459945
LeftHand -17.839139 -0.000000 -4.632820
LeftHandThumb1 -26.253704 0.000000 33.147579
Head -12.539653 13.106845 2.796299
1333
root 0.853301 37.454394 -2.532594 -2.457396 -3.345243 2.480592
RightUpLeg 10.133687 -7.399763 -6.111807
RightLeg -5.567789 -0.000000 0.000000
RightFoot -10.921173 -16.305728 20.681022
RightToeBase 15.910188 -0.000000 -0.000000
LeftUpLeg 9.093663 -2.900031 -0.661382
LeftLeg -3.049236 -0.000000 0.000000
LeftFoot -6.837641 10.210654 -18.685729
LeftToeBase 10.364847 -0.000000 -0.000000
Spine 6.173993 -5.302596 -3.382658
RightShoulder -2.231295 -8.829120 -29.483577
RightArm 8.717876 27.237466 30.494264
RightForeArm 5.984649 0.000000 12.985521
RightHand 2.434465 -0.000000 4.760465
RightHandThumb1 -24.326973 -0.000000 -32.862282
LeftShoulder -18.998130 29.608110 21.965446
LeftArm 48.902165 -51.341254 -58.590484
LeftForeArm 39.598796 -0.000000 -0.548497
LeftHand -17.863980 -0.000000 -4.583289
LeftHandThumb1 -26.253704 0.000000 33.147579
Head -12.514820 13.171756 2.786651
1334
root 0.857787 37.455531 -2.540047 -2.479488 -3.357904 2.464221
RightUpLeg 10.124721 -7.407924 -6.101289
RightLeg -5.536472 -0.000000 0.000000
RightFoot -10.907464 -16.310056 20.677061
RightToeBase 15.896908 -0.000000 -0.000000
LeftUpLeg 9.126716 -2.941035 -0.658119
LeftLeg -3.089508 -0.000000 0.000000
LeftFoot -6.833979 10.271713 -18.683676
LeftToeBase 10.377437 -0.000000 -0.000000
Spine 6.183349 -5.296723 -3.340953
RightShoulder -2.229812 -8.875673 -29.420341
RightArm 8.756362 27.120042 30.323894
RightForeArm 5.779617 0.000000 13.007996
RightHand 2.377770 0.000000 5.009545
RightHandThumb1 -24.326973 -0.000000 -32.862282
LeftShoulder -18.939393 29.530933 21.934399
LeftArm 48.711563 -51.358479 -58.303927
LeftForeArm 39.516972 -0.000000 -0.639585
LeftHand -17.765003 -0.000000 -4.679967
LeftHandThumb1 -26.253704 0.000000 33.147579
Head -12.507414 13.270190 2.770415
1335
root 0.863810 37.455899 -2.547226 -2.499531 -3.388543 2.448266
RightUpLeg 10.109402 -7.419152 -6.098418
RightLeg -5.501218 -0.000000 0.000000
RightFoot -10.889401 -16.270051 20.668448
RightToeBase 15.904638 -0.000000 -0.000000
LeftUpLeg 9.167101 -2.991208 -0.658907
LeftLeg -3.140975 -0.000000 0.000000
LeftFoot -6.836985 10.337155 -18.704768
LeftToeBase 10.406718 -0.000000 -0.000000
Spine 6.187898 -5.284899 -3.288034
RightShoulder -2.231382 -8.889177 -29.397699
RightArm 8.807041 26.971177 30.192781
RightForeArm 5.637071 -0.000000 13.023291
RightHand 2.457165 -0.000000 5.086346
RightHandThumb1 -24.326973 -0.000000 -32.862282
LeftShoulder -18.918089 29.477583 21.892076
LeftArm 48.604737 -51.360881 -58.120599
LeftForeArm 39.541205 -0.000000 -0.714409
LeftHand -17.674099 0.000000 -4.674123
LeftHandThumb1 -26.253704 0.000000 33.147579
Head -12.492600 13.467112 2.759062
